<svg xmlns="http://www.w3.org/2000/svg" viewBox="0 0 201.45 201.87"><defs><style>.cls-1{fill:none;stroke:#000;stroke-miterlimit:10;stroke-width:5px;}</style></defs><g id="Layer_2" data-name="Layer 2"><g id="Layer_1-2" data-name="Layer 1"><line class="cls-1" x1="2.28" y1="200.44" x2="117.28" y2="1.25"/><line class="cls-1" x1="84.28" y1="1.44" x2="199.28" y2="200.62"/><polyline class="cls-1" points="48.28 199.44 100.41 106.94 153.41 199.07"/><path d="M200,198.94l-.26,0a1.45,1.45,0,0,0-.74-.19h-3a2.24,2.24,0,0,0,.4-1.79c-.3-2.06-2-4.07-3.14-5.74a38.37,38.37,0,0,0-4.38-5.14,2.47,2.47,0,0,0-.56-.39,16.35,16.35,0,0,0-1.78-8.36c-10.3-20.15-24-38.65-35.63-58.08q-8.61-14.38-17.14-28.83L125,75.75c-1.92-3.23-4.62-7-6-10.31a14.63,14.63,0,0,0-4.34-8.66,15.11,15.11,0,0,0-6.4-9.15,1.78,1.78,0,0,0-.06-.51l-.72-2.77a4.2,4.2,0,0,0-1.63-2.67,2.5,2.5,0,0,0-1.07-.39l-1.68-5.1a2,2,0,0,0-1.67-1.43,2,2,0,0,0-2,1,56.74,56.74,0,0,1-6.79,10.62,2.31,2.31,0,0,0-.5,2,16.21,16.21,0,0,0-4.1,4.27A349.19,349.19,0,0,0,69.13,84.75c-5.69,11-10.85,22.24-17.43,32.79-12,19.23-25.46,37.08-34.57,57.87a14.26,14.26,0,0,0-2.52,8c0,.21,0,.43,0,.64a1.88,1.88,0,0,0-1,1.54,1.69,1.69,0,0,0-1.11.88c-.29.58-.61,1.25-.89,1.94a2.3,2.3,0,0,0-2.13.4c-1.81,1.52-4.26,4.36-3.39,6.92a3.79,3.79,0,0,0,.18.42,2,2,0,0,0-1.53,1.9,1.81,1.81,0,0,0,.14.69H1.45a1.4,1.4,0,0,0-.6.12.36.36,0,0,1,0,.09,1.93,1.93,0,0,1-.51.81A2,2,0,0,1,0,200a1.44,1.44,0,0,0,1.43,1.75H49.11a1.5,1.5,0,0,0,0-3H47.52a2.15,2.15,0,0,0,.61-2.24,15.81,15.81,0,0,0,4.32-4.45c4.66-7.22,7.65-15.24,11.59-22.84,3.83-7.38,8.83-14,13.09-21.17a91.06,91.06,0,0,0,6.05-12.2c.75-1.83,1.26-4,2.14-5.73-.11.43,2.2-2.88,2.47-3.28,1.93-3,3-6.31,4.83-9.29a54.78,54.78,0,0,0,2.93-4.79A33.13,33.13,0,0,0,97.09,109a15.51,15.51,0,0,0,2.29-2.51c9.57,12.16,15.35,27.84,23.78,41.18,4.51,7.14,9.66,13.09,13.91,20.52q6.77,11.84,13.5,23.7a13.47,13.47,0,0,0,3.75,4.18,2.16,2.16,0,0,0-.3,2.69h-1.24a1.5,1.5,0,0,0,0,3H199a1.15,1.15,0,0,0,.26,0l.06,0h1.37A1.52,1.52,0,0,0,200,198.94Z"/></g></g></svg>